<svg xmlns="http://www.w3.org/2000/svg" width="36" height="36" viewBox="0 0 36 36">
  <path fill="#FEFEFE" d="M18,0 C8.0595,0 0,8.0595 0,18 C0,27.9405 8.0595,36 18,36 C27.9405,36 36,27.9405 36,18 C36,8.0595 27.9405,0 18,0 Z M21.327,27.924 C20.796,28.0275 20.625,27.7005 20.625,27.42 L20.625,24.5385 C20.625,23.559 20.2815,22.92 19.9035,22.5945 C22.2435,22.335 24.7005,21.447 24.7005,17.4135 C24.7005,16.266 24.291,15.33 23.619,14.595 C23.727,14.3295 24.087,13.2615 23.5155,11.8155 C23.5155,11.8155 22.635,11.5335 20.631,12.891 C19.7895,12.66 18.8925,12.5445 18,12.54 C17.1075,12.5445 16.2105,12.66 15.3705,12.8925 C13.365,11.535 12.483,11.817 12.483,11.817 C11.9145,13.263 12.273,14.331 12.3825,14.595 C11.7105,15.33 11.2995,16.266 11.2995,17.4135 C11.2995,21.4365 13.7505,22.3365 16.083,22.602 C15.783,22.8645 15.5115,23.3265 15.417,24.006 C14.817,24.2745 13.2975,24.738 12.3615,23.133 C12.3615,23.133 11.8065,22.125 10.752,22.05 C10.752,22.05 9.7275,22.0365 10.68,22.689 C10.68,22.689 11.37,23.0115 11.8455,24.225 C11.8455,24.225 12.453,26.1 15.375,25.464 L15.375,27.4185 C15.375,27.696 15.2055,28.0215 14.682,27.924 C10.509,26.5365 7.5,22.6005 7.5,17.9625 C7.5,12.162 12.2025,7.4625 18,7.4625 C23.7975,7.4625 28.5,12.162 28.5,17.9625 C28.5,22.599 25.4955,26.535 21.327,27.924 Z"/>
</svg>
